<?xml version="1.0" encoding="utf-8"?>
<!-- Generator: Adobe Illustrator 20.1.0, SVG Export Plug-In . SVG Version: 6.00 Build 0)  -->
<svg version="1.1" id="Calque_1" xmlns="http://www.w3.org/2000/svg" xmlns:xlink="http://www.w3.org/1999/xlink" x="0px" y="0px"
	 viewBox="0 0 432 432" style="enable-background:new 0 0 432 432;" xml:space="preserve">
<style type="text/css">
	.st0{fill:#EF791A;}
	.st1{fill:#C9973C;}
	.st2{fill:#E8396C;}
	.st3{fill:#EB8031;}
	.st4{fill:#CC6826;}
	.st5{fill:#543115;}
	.st6{fill:#544C3D;}
	.st7{fill:#F3978C;}
	.st8{fill:#8A7C62;}
	.st9{fill:#E0E0DF;}
	.st10{fill:#36A9E1;}
	.st11{fill:#634E42;}
	.st12{fill:#662483;}
	.st13{fill:#EA4D94;}
	.st14{fill:#432918;}
	.st15{fill:#E30613;}
	.st16{fill:#CB9B3F;}
	.st17{fill:#008D36;}
	.st18{fill-rule:evenodd;clip-rule:evenodd;fill:#C9973C;}
	.st19{fill:#D82116;}
	.st20{fill-rule:evenodd;clip-rule:evenodd;fill:#D82116;}
	.st21{fill-rule:evenodd;clip-rule:evenodd;fill:#008D36;}
</style>
<g>
	<g>
		<path d="M242.8,132.9c0.2,0.2,0.3,0.3,0.4,0.3c-0.1-0.1-0.2-0.1-0.2-0.1C242.9,133,242.9,133,242.8,132.9z"/>
		<path d="M353.5,200.5c-0.8-1.1-1.8-2.1-2.8-2.9c-1.1-0.8-2.4-1.2-3.9-1.2c-0.8,0-1.5,0.1-2.1,0.3c-0.6,0.2-1,0.8-1.4,1.7
			c-0.6,1.4-1.6,3.5-3.1,6.4c-1.5,2.9-3.2,5.8-5,8.8c-1.8,3-3.6,5.8-5.3,8.4c-1.6,2.3-2.8,4-3.7,5.1c-0.7,0.5-1.4,1-2.1,1.4
			c-0.8,0.5-1.6,0.9-2.4,1.3c-0.3-1.3-0.5-2.6-0.6-4c-0.1-1.4-0.1-2.8-0.1-4.1c0-2.7,0.1-5.3,0.3-7.9c0.2-2.6,0.3-5.3,0.3-7.9
			c0-3-0.3-6.2-1-9.5c-0.6-3.3-1.7-6.4-3.2-9.1c-1.5-2.8-3.5-5-6-6.8c-2.5-1.8-5.6-2.7-9.4-2.7c-1.5,0-3.2,0.5-5.1,1.4
			c-1.9,0.9-3.4,1.9-4.4,2.9c0-2.1,0-4.2,0.1-6.3c0.1-2.1,0.1-4.2,0.1-6.3c0-1.8,0-3.6,0.1-5.2c0-1.6,0.1-3.3,0.1-5
			c0-0.9,0-1.9,0.1-2.9c0.1-1,0.2-1.9,0.4-2.8c1.6-0.5,3.1-1.2,4.6-2.2c1.5-1,2.9-2.2,4-3.6c1.2-1.4,2.1-2.9,2.8-4.6
			c0.7-1.7,1-3.4,1-5.1c0-1.2-0.3-2.5-1-3.8c-0.6-1.3-1.5-2.6-2.5-3.7c-1-1.2-2.2-2.1-3.5-2.8c-1.3-0.7-2.5-1.1-3.7-1.1
			c-1.9,0-3.7,0.7-5.2,2.1c-1.5,1.4-2.8,3.2-3.7,5.3c-1,2.1-1.7,4.5-2.1,7c-0.4,2.6-0.6,5-0.5,7.3c-0.4,0.2-0.8,0.3-1.2,0.3
			c-0.5,0-0.9,0-1.4,0c-0.2,0-0.3-0.5-0.4-1.4c-0.1-0.9-0.5-1.4-1.2-1.4c-0.3,0-0.6,0.2-1,0.5c-0.4,0.3-0.8,0.6-1,0.8
			c-0.1,0.3-0.2,0.4-0.4,0.5c-0.2,0-0.3,0.3-0.3,0.6c0,1.6,0.8,2.8,2.3,3.7c1.5,0.9,2.9,1.5,4.2,1.8c0,1.6,0,3.2-0.1,4.9
			c-0.1,1.7-0.2,3.3-0.2,4.9c0,1.6-0.1,2.9-0.1,4.1c0,1.2-0.1,2-0.1,2.3c-0.2,3.5-0.4,6.7-0.6,9.5c-0.2,2.9-0.4,5.6-0.7,8.4
			c-0.3,2.5-0.6,5.1-1,7.7c-0.3,0.1-0.6,0.3-0.7,0.7l-1.4,1.9c-1.6,3.5-3.4,6.5-5.4,8.8c-2,2.4-4.1,4.2-6.2,5.4
			c-2.1,1.2-4.2,1.8-6.2,1.7c-2,0-3.7-0.7-5.2-2c1.8-5,3.3-10.4,4.4-16.4c1.1-5.9,1.8-11.5,1.9-16.7c0.1-2.8,0.2-5.7,0.3-8.9
			c0.1-3.2,0.1-6.1-0.1-8.8c-0.3-3.6-0.6-7.1-1-10.6c-0.4-3.5-1.2-6.7-2.3-9.7c-1.2-3-2.9-5.7-5.1-8c-2.2-2.4-5.3-4.3-9.3-5.9
			c-1-0.4-2-0.6-2.9-0.7c-0.9-0.1-1.9-0.1-2.9-0.1c-0.5-0.3-1.2-0.4-2.1-0.5c-0.9,0-1.9-0.1-3-0.1c-1.1,0-2.1,0-3,0.1
			c-1,0-1.7,0.1-2.3,0.2c-4.1,0.6-7.6,2.1-10.7,4.5c-3.1,2.4-5.8,5.2-8.2,8.5c-2.3,3.3-4.3,7-5.9,11c-1.6,4-2.9,8-3.9,12
			c-1,4-1.8,7.8-2.3,11.4c-0.5,3.6-0.8,6.7-0.9,9.3c-0.1,3-0.1,6.5,0,10.3c0.1,3.8,0.4,7.7,1,11.7c0.6,4,1.5,7.8,2.7,11.5
			c1.2,3.7,2.8,7.1,4.8,10c2,2.9,4.6,5.3,7.6,7c3,1.8,6.7,2.6,11.1,2.6c5.8,0,11.2-1.2,16.3-3.5c5.1-2.3,9.3-6.7,12.6-12.9
			c1.2,0.5,2.4,0.9,3.6,1.2c1.2,0.4,2.4,0.6,3.7,0.6c4.1-0.1,8.5-1.7,13.1-4.9c1.7-1.2,3.3-2.6,4.8-4.1c-0.1,0.6-0.2,1.2-0.4,1.8
			c-0.4,2-0.9,4-1.4,6.2c-0.5,2.1-0.9,4.1-1.3,5.9c-0.4,1.8-0.7,3.3-1,4.6c-0.3,1.2-0.4,2-0.4,2.1c0,0.8,0.3,1.6,1,2.4
			c0.6,0.8,1.4,1.5,2.4,2.2c0.9,0.7,1.9,1.2,2.9,1.7c1,0.4,1.9,0.6,2.6,0.6c1.3,0,2.2-0.6,2.6-1.9c1.6-5.1,2.7-10.2,3.5-15.3
			c0.7-5.1,1.5-10.2,2.4-15.4c0.2-1.1,0.7-2.5,1.7-4.1c0.9-1.6,2-3.2,3.1-4.9c1.2-1.7,2.3-3.2,3.6-4.6c1.2-1.4,2.3-2.4,3.1-3.2h-0.1
			c0.6-0.4,1.2-0.8,1.9-1.4c0.7-0.6,1.4-1,2-1.2c0.6-0.3,1.2-0.3,1.7-0.1c0.5,0.2,0.9,0.7,1,1.7l-0.1-0.3c0.5,1.8,0.8,3.9,1,6.2
			c0,3.2-0.2,6.5-0.6,9.8c-0.4,3.3-0.6,6.6-0.6,9.8c0,3,0.1,5.8,0.4,8.6c0.3,2.8,1,5.3,2.1,7.5c1.1,2.2,2.7,4,4.8,5.4
			c2.1,1.4,5,2.1,8.7,2.1c2,0,4-0.4,5.9-1.2c1.9-0.8,3.7-1.8,5.3-3.2c1.6-1.3,3.1-2.8,4.4-4.5c1.3-1.7,2.4-3.3,3.3-5
			c1.7-3.2,3.6-6.6,5.5-10.2c1.9-3.5,3.5-7.1,4.7-10.6c0.2-0.5,0.3-0.9,0.4-1.2c0.1-0.4,0.1-0.8,0.1-1.2
			C353.8,201.1,353.7,200.8,353.5,200.5z M295.3,140.1c0-1,0.2-2,0.7-3l-0.1,0.3c0.3-0.7,0.6-1.5,1-2.1c0.4-0.7,0.8-1.3,1.3-1.9
			c0.1,0.2,0.2,0.3,0.3,0.4c0.1,0.1,0.1,0.4,0.1,1c0,1-0.2,2.1-0.7,3.2c-0.5,0.7-0.9,1.6-1.2,2.5c-0.3,0.9-0.9,1.8-1.9,2.6
			C295.2,142.1,295.3,141.1,295.3,140.1z M237.8,217.8c-1.1,2.4-2.4,4.6-3.8,6.5c-1.4,1.9-3.1,3.3-4.9,4.3c-1.8,1-3.9,1.3-6.1,1
			c-0.6-0.1-1-0.2-1.2-0.3c-0.3-0.1-0.6-0.2-1.1-0.3c-2.5-2.2-4.5-5.1-6-8.6c-1.5-3.5-2.7-7.2-3.5-11.2c-0.8-4-1.3-7.9-1.5-11.9
			c-0.2-4-0.3-7.5-0.2-10.6c0.2-6.6,1.2-13.3,3-20c1.8-6.7,4.5-13.1,7.9-19.1c0.3,4.7,0.9,9.9,2,15.5c1.1,5.7,2.5,11.4,4.2,17.1
			c1.7,5.7,3.8,11.2,6.2,16.4c2.4,5.3,5,9.8,7.8,13.5C239.8,212.9,238.9,215.4,237.8,217.8z M247.6,181c-0.6,6.4-1.8,12.7-3.5,18.9
			c-1.6-3.4-3.2-7.3-4.8-11.7c-1.6-4.4-3.1-8.8-4.5-13.4c-1.4-4.6-2.5-9.1-3.3-13.5c-0.8-4.5-1.2-8.5-1.1-12.1
			c0-1.2,0.2-2.8,0.6-4.8c0.4-2,1-3.9,1.8-5.8c0.8-1.9,1.8-3.5,3-4.9c1.2-1.4,2.7-2.1,4.5-2.1c1.2,0,2.2,0.6,3.1,1.9
			c0.9,1.2,1.6,2.9,2.3,4.8c0.6,2,1.2,4.2,1.6,6.6c0.4,2.4,0.7,4.7,1,6.9c0.2,2.2,0.4,4.2,0.4,6.1c0,1.8,0.1,3.2,0.1,4
			C248.7,168.3,248.3,174.6,247.6,181z"/>
	</g>
	<path class="st6" d="M352.3,70.3c-1.6-1.1-3.3-2.3-4.9-3.4c-3.8-2.7-7.7-5.4-11.8-7.7c-0.1-0.1-0.3-0.2-0.4-0.2
		c-1.5-0.8-2.7-1.4-3.5-0.3c-0.6,0.9-0.2,1.8,0.7,2.8c0.2,0.2,0.4,0.4,0.6,0.6c0.1,0.2,0.3,0.3,0.4,0.4c1,1.1,2.2,1.9,3.3,2.8
		c0.9,0.6,1.8,1.3,2.6,2c0.1,0.1,0.2,0.2,0.3,0.2c0.2,0.2,0.4,0.3,0.6,0.5c0.4,0.4,0.5,0.8,0.4,1.3c-0.2,0.9-1,0.9-1.5,0.9
		c-0.2,0-0.4,0-0.6,0.1c-0.3,0.1-0.6,0.1-0.9,0.1c-8.3,0.3-16.6,0.3-24.7-0.3c-4.2-0.3-8.5-0.4-13-0.5c-0.4-1-1.1-1.9-2.2-2.5
		c-1.2-0.6-4.2-0.2-4.9,1.1c-0.3,0.5-0.4,0.9-0.6,1.3c-1.1,0-2.2,0-3.3,0c-0.6,0-1.1,0-1.7,0c0-0.9-0.4-1.6-1.4-2.1
		c-2.8-1.4-5.7-0.6-7,2.1c0,0,0,0.1,0,0.1c-1.8,0-3.6,0-5.3,0c-0.6-2-2.2-3.4-4.5-3.5c-1.3-0.1-3.8,1.7-3.9,3.1c0,0.1,0,0.3,0,0.4
		l-1.7,0c-1.6,0-3.2,0-4.8-0.1c-0.3,0-0.6,0-0.8,0c-4-0.1-8.2-0.3-12.3,0.3c-4.2,0.6-8.6,0.7-11.9-2.9c-0.3-0.3-0.6-0.7-0.8-1
		c0,0-0.1-0.1-0.2-0.1c0,0-0.1,0-0.1-0.1c-1.1-0.7-2-0.7-2.6-0.1c-0.6,0.5-0.5,1.1,0.2,1.9c0.1,0.1,0.2,0.2,0.3,0.3
		c0.1,0.1,0.1,0.1,0.2,0.2c0.8,0.8,0.5,1.5,0.1,2c-0.6,0.7-1.4,0.9-2.3,0.6c-0.8-0.3-1.3-0.9-1.9-1.4l-0.1-0.1c-1-1-2.1-2.1-3.1-3
		c-0.8-0.6-1.2-0.9-1.8-0.5c-0.4,0.3-0.3,0.6-0.1,1.2c0,0.2,0.1,0.3,0.1,0.5c0,0.1,0.1,0.3,0.1,0.4c0.2,0.5,0.5,1.2-0.3,1.7
		c-0.7,0.4-1.4-0.1-1.9-0.4c-0.1,0-0.1-0.1-0.2-0.1c-0.9-0.7-1.7-1.5-2.3-2.5c-0.5-0.9-0.9-1.3-1.4-1.7l-0.1,0
		c-0.5-0.3-0.9-0.5-1.2-0.3c-0.4,0.2-0.3,0.6-0.1,1.2c0.2,0.6,0.4,1.2,0.6,1.8c0.1,0.3,0.2,0.6,0.4,0.9l0.2,0.5l-0.6-0.1
		c-1.7-0.3-2.7-1.3-3.7-2.2c-0.3-0.2-0.5-0.4-0.7-0.7c-0.1-0.1-0.2-0.2-0.3-0.3c-0.6-0.5-1.3-1.1-1.8-1.1c-0.3,0-0.5,0.2-0.7,0.5
		c-0.4,0.5-0.4,1,0,1.5c0.4,0.4,0.9,0.8,1.4,1c0.1,0,0.1,0.1,0.2,0.1c0.1,0.1,0.3,0.2,0.4,0.3c0.2,0.2,0.4,0.4,0.6,0.6
		c0.5,0.5,0.7,1.1,0.7,1.6c-0.1,0.6-0.5,1.3-1.4,1.9c-0.7,0.6-1.3,1.1-1.7,1.6c-0.7,0.8-0.7,1.3-0.3,1.8l-0.2,0.2l0.2-0.2
		c0.3,0.4,0.7,0.3,1.3,0c0.1-0.1,0.2-0.1,0.3-0.1c0.6-0.2,1.1-0.6,1.6-1c0.8-0.6,1.6-1.1,2.6-1.3c0,0,0.1,0,0.1,0
		c0.3-0.1,0.8-0.2,1.2,0.3c0.4,0.6,0,1-0.2,1.3l-0.1,0.1c-0.1,0.1-0.2,0.2-0.3,0.3c-0.2,0.2-0.5,0.5-0.6,0.7c-0.2,0.4-0.4,1,0,1.5
		c0.3,0.4,0.7,0.3,1.3,0l0.1,0c0.6-0.3,1.2-0.6,1.6-1c1.7-1.3,3.3-2.3,5.8-2.9l1-0.2l-0.7,0.7c-0.3,0.3-0.4,0.5-0.6,0.7
		c-0.2,0.3-0.4,0.4-0.5,0.6c-0.7,0.8-0.7,1.7-0.2,2.5c0,0.1,0.1,0.1,0.1,0.2c0.4,0.4,0.9,0.3,1.6-0.1c0.2-0.1,0.3-0.1,0.5-0.2
		c0.8-0.3,1.5-0.9,2.2-1.5c0.4-0.3,0.8-0.7,1.3-1c0.1-0.1,0.3-0.2,0.4-0.3c0.9-0.6,2-1.5,3.1-0.6c0.8,0.7,0.1,1.6-0.5,2.2
		c-0.2,0.2-0.4,0.4-0.5,0.6c-0.3,0.5-0.6,1.2-0.1,1.9c0.3,0.4,0.7,0.3,1.4,0.1c0.1,0,0.2-0.1,0.3-0.1c0.8-0.2,1.4-0.7,2-1.2
		c0.2-0.2,0.4-0.3,0.6-0.5c2.5-1.9,5-4,8.9-4c1.7,0,3.5-0.1,5.2-0.1c3.5-0.1,7-0.2,10.5-0.3c2.5,0,5-0.1,7.5-0.1v0
		c0.1,0,0.2,0,0.3,0c0.7,1.2,1.8,1.9,3.5,1.9c1.9,0.1,4-0.1,4.4-1.9c1.8,0,3.5,0,5.2,0c0.3,0.9,0.7,1.7,1.3,2c2.8,1.4,5,0.7,6.2-1.7
		c0-0.1,0.1-0.1,0.1-0.2c2,0,3.9,0,5.8,0.1c0.3,0.8,1,1.5,2,2c1.8,1,4,1.8,5.2-0.3c0.3-0.5,0.5-1.1,0.6-1.6
		c4.6,0.1,9.7,0.2,14.6,0.4c2.4,0.1,4.9,0.1,7.3,0.2c5.4,0.1,10.9,0.2,16.3,0.8c0.1,0,0.3,0,0.5,0c0.5,0,1.2,0,1.6,0.5
		c0.1,0.2,0.2,0.3,0.3,0.6c0.2,0.9-0.5,1.6-1.1,2.2l-0.1,0.1c-0.3,0.3-0.7,0.6-1.1,0.8c-0.2,0.1-0.4,0.3-0.5,0.4
		c-0.5,0.4-1,0.7-1.4,1c-1.2,0.8-2.3,1.7-3.4,2.6c-0.5,0.5-1.7,1.7-0.9,3.1c0.1,0.1,0.2,0.2,0.2,0.3c0.5,0.6,1.3,0.4,2.3,0
		c0.1-0.1,0.3-0.1,0.4-0.2c6.9-2.5,12.5-6.9,17.5-11.2c0.9-0.8,1.4-1.5,1.4-2.1C353.8,71.7,353.3,71,352.3,70.3z"/>
	<g>
		<path class="st7" d="M147.2,261.4c-4.2-4.6-9.2-8.2-15-10.8c-5.8-2.6-12-3.9-18.6-3.9c-1.9,0-3.9,0.1-5.8,0.4
			c-0.6-0.3-1.3-0.4-2.1-0.5c-0.9,0-1.7,0-2.6,0.1c-0.8,0.1-1.5,0.3-2.1,0.6c-0.6,0.2-0.9,0.5-0.9,0.9v106.6c0,0.5,0.6,0.8,1.9,0.9
			c1.3,0.1,2.6,0.1,3.9-0.1c0.9,0.1,1.9,0.1,2.8,0.1c1,0,1.8,0,2.6,0c10.3,0,18.7-1.8,25.2-5.5c6.5-3.6,11.5-8.3,15.1-14
			c3.6-5.7,6-12,7.3-18.9c1.3-6.9,1.9-13.6,1.9-20.1c0-7.1-1.2-13.7-3.7-19.8C154.8,271.3,151.5,266,147.2,261.4z M151.7,307.5
			c-0.4,4-1.1,7.8-2.1,11.6c-1.1,3.8-2.5,7.3-4.3,10.7c-1.8,3.4-4.1,6.3-7,8.8c-2.9,2.5-6.3,4.5-10.4,6c-4.1,1.5-8.8,2.2-14.4,2.2
			c-0.8,0-1.6,0-2.3,0c-0.7,0-1.5,0-2.4-0.1V256c2-0.5,4.1-0.7,6.1-0.7c5.4,0,10.4,1.2,15,3.7c4.6,2.4,8.5,5.6,11.8,9.5
			c3.3,3.9,5.9,8.2,7.7,13.1c1.8,4.9,2.8,9.7,2.8,14.5C152.2,299.7,152,303.6,151.7,307.5z"/>
		<path class="st7" d="M218.8,285.2c-0.8-4.6-1.9-9-3.3-13.3c-1.4-4.3-3-8.2-4.9-11.5c-1.9-3.4-4.1-6.1-6.6-8.3
			c-2.5-2.2-5.3-3.4-8.4-3.8c-2.7,0-5.4,0.7-8.1,2.2c-2.7,1.5-5.3,3.7-7.9,6.6c-2.5,2.9-4.9,6.5-7,10.7c-2.1,4.2-3.9,9.2-5.3,14.8
			c-1,3.9-1.7,7.7-1.9,11.3c-0.3,3.7-0.4,7.1-0.4,10.4c0,0.7,0,1.5,0.1,2.3c0,0.8,0.1,1.5,0.1,2.3c0.1,4.1,0.6,8.8,1.7,14.2
			c1,5.4,2.6,10.6,4.9,15.6c2.3,5,5.2,9.2,8.9,12.6c3.7,3.5,8.2,5.2,13.7,5.2c5,0,9.5-0.9,13.5-2.8c4-1.8,7.3-4.5,10-8
			c0.3-0.5,0.2-1.1-0.3-1.9c-0.5-0.8-1.1-1.5-1.9-2.1c-0.8-0.6-1.6-1-2.5-1.2c-0.9-0.2-1.5,0-2,0.6c-2,2.5-4.4,4.4-7.2,5.6
			c-2.8,1.2-6.1,1.8-10.1,1.7c-1.9,0-3.8-0.5-5.5-1.5c-1.7-1-3.2-2.4-4.6-4.1c-1.4-1.7-2.6-3.6-3.7-5.8c-1.1-2.2-2.1-4.4-2.9-6.8
			l38,0.1c1.3,0,2.4-0.5,3.4-1.4c1-0.9,1.5-2.1,1.7-3.5c0.3-1.7,0.5-3.8,0.7-6c0.2-2.3,0.3-4.8,0.3-7.7c0-4-0.2-8.2-0.6-12.8
			C220.3,294.3,219.7,289.8,218.8,285.2z M213,316.7c-0.1,2-0.3,3.7-0.6,5.2H175c-1-4.8-1.6-9.2-1.8-13.1c-0.1-1.4-0.1-3,0-5
			c0.1-1.9,0.3-4,0.5-6.1c0.2-2.1,0.5-4.3,0.8-6.4c0.3-2.2,0.6-4.2,1-6.2c1.1-4.5,2.4-8.5,3.9-12.1c1.5-3.5,3.2-6.5,5-9
			c1.8-2.4,3.6-4.3,5.5-5.7c1.9-1.3,3.7-2,5.5-2c2.9,0.5,5.6,2.6,7.8,6.3c2.3,3.7,4.1,8.3,5.6,13.6c1.5,5.3,2.6,11.1,3.3,17.1
			c0.7,6.1,1.1,11.7,1.1,17C213.2,312.6,213.1,314.7,213,316.7z"/>
		<path class="st7" d="M281.7,285.2c-0.8-4.6-1.9-9-3.3-13.3c-1.4-4.3-3-8.2-4.9-11.5c-1.9-3.4-4.1-6.1-6.6-8.3
			c-2.5-2.2-5.3-3.4-8.4-3.8c-2.7,0-5.4,0.7-8.1,2.2c-2.7,1.5-5.3,3.7-7.9,6.6c-2.5,2.9-4.9,6.5-7,10.7c-2.1,4.2-3.9,9.2-5.3,14.8
			c-1,3.9-1.7,7.7-1.9,11.3c-0.3,3.7-0.4,7.1-0.4,10.4c0,0.7,0,1.5,0.1,2.3c0,0.8,0.1,1.5,0.1,2.3c0.1,4.1,0.6,8.8,1.7,14.2
			c1,5.4,2.6,10.6,4.9,15.6c2.3,5,5.2,9.2,8.9,12.6c3.7,3.5,8.2,5.2,13.7,5.2c5,0,9.5-0.9,13.5-2.8c4-1.8,7.3-4.5,10-8
			c0.3-0.5,0.2-1.1-0.3-1.9c-0.5-0.8-1.1-1.5-1.9-2.1c-0.8-0.6-1.6-1-2.5-1.2c-0.9-0.2-1.5,0-2,0.6c-2,2.5-4.4,4.4-7.2,5.6
			c-2.8,1.2-6.1,1.8-10.1,1.7c-1.9,0-3.8-0.5-5.5-1.5c-1.7-1-3.2-2.4-4.6-4.1c-1.4-1.7-2.6-3.6-3.7-5.8c-1.1-2.2-2.1-4.4-2.9-6.8
			l38,0.1c1.3,0,2.4-0.5,3.4-1.4c1-0.9,1.5-2.1,1.7-3.5c0.3-1.7,0.5-3.8,0.7-6c0.2-2.3,0.3-4.8,0.3-7.7c0-4-0.2-8.2-0.6-12.8
			C283.2,294.3,282.6,289.8,281.7,285.2z M275.9,316.7c-0.1,2-0.3,3.7-0.6,5.2h-37.3c-1-4.8-1.6-9.2-1.8-13.1c-0.1-1.4-0.1-3,0-5
			c0.1-1.9,0.3-4,0.5-6.1c0.2-2.1,0.5-4.3,0.8-6.4c0.3-2.2,0.6-4.2,1-6.2c1.1-4.5,2.4-8.5,3.9-12.1c1.5-3.5,3.2-6.5,5-9
			c1.8-2.4,3.6-4.3,5.5-5.7c1.9-1.3,3.7-2,5.5-2c2.9,0.5,5.5,2.6,7.8,6.3c2.3,3.7,4.1,8.3,5.6,13.6c1.5,5.3,2.6,11.1,3.3,17.1
			c0.7,6.1,1.1,11.7,1.1,17C276.1,312.6,276,314.7,275.9,316.7z"/>
		<path class="st7" d="M339,309.6c3-4.4,5.4-9.4,7.2-14.9c1.7-5.5,2.6-11.3,2.6-17.3c0-4.6-0.7-8.7-2-12.2c-1.3-3.5-3.2-6.4-5.5-8.8
			c-2.3-2.3-5-4.1-8.1-5.3c-3-1.2-6.3-1.7-9.7-1.7c-3.7,0-7.5,0.8-11.4,2.3c-3.9,1.5-7.5,3.7-10.7,6.4v-4.3c0-0.6-0.4-0.9-1.2-1.1
			c-0.8-0.2-1.8-0.2-2.8-0.1c-1.1,0.1-2,0.3-2.9,0.6c-0.9,0.3-1.4,0.6-1.5,1l-1.9,99c0,0.5,0.4,0.8,1.3,0.9c0.9,0.1,1.9,0.2,3,0.1
			c1.1-0.1,2.1-0.2,3-0.4c0.9-0.2,1.3-0.4,1.3-0.7c0-3.5,0-7.1,0.1-10.7c0.1-3.6,0.1-7.2,0.1-10.7c1,0,1.7,0,2.1-0.1
			c0.4,0,1-0.1,1.7-0.1c5.9,4.1,11.7,8.2,17.3,12.1c5.7,3.9,11.4,7.9,17.3,12.1l-0.1-0.1c0.3,0.1,0.8-0.2,1.5-0.9
			c0.7-0.7,1.4-1.5,2.1-2.4c0.6-0.9,1.2-1.8,1.5-2.6c0.4-0.8,0.4-1.4,0.1-1.7c-4.9-3.2-9.7-6.4-14.4-9.6c-4.7-3.2-9.6-6.4-14.4-9.6
			c4.9-1.7,9.4-4.3,13.5-7.5C332.3,317.9,335.9,314,339,309.6z M317,318.6c-5,2.6-10.6,4-17,4.1l1.1-51c2.7-4.6,6.1-8,10.2-10.3
			c4.1-2.3,8.2-3.4,12.4-3.4c2.2,0,4.3,0.4,6.3,1.2c2,0.8,3.7,2,5.3,3.5c1.5,1.6,2.7,3.5,3.7,5.9c0.9,2.4,1.4,5.3,1.4,8.6
			c0,5.6-0.9,11.1-2.7,16.5c-1.8,5.4-4.4,10.2-7.9,14.5C326.2,312.6,322,316,317,318.6z"/>
	</g>
	<g>
		<path class="st7" d="M166.4,378.7c0,5.6,6.3,9,11.2,9c6.2,0,9.3-4.4,9.3-10c0-5.4-4.7-9.5-9.7-9.5
			C171.4,368.3,166.4,373.1,166.4,378.7z"/>
		<path class="st7" d="M102.2,378.7c0,5.6,6.3,9,11.2,9c6.2,0,9.2-4.4,9.2-10c0-5.4-4.7-9.5-9.7-9.5
			C107.2,368.3,102.2,373.1,102.2,378.7z"/>
		<path class="st6" d="M134.3,378.8c0,5.6,6.3,9,11.2,9c6.2,0,9.3-4.4,9.3-10c0-5.4-4.7-9.5-9.7-9.5
			C139.3,368.2,134.3,373.1,134.3,378.8z"/>
		<path class="st6" d="M198.6,378.8c0,5.6,6.3,9,11.2,9c6.2,0,9.3-4.4,9.3-10c0-5.4-4.7-9.5-9.7-9.5
			C203.5,368.2,198.6,373.1,198.6,378.8z"/>
		<path class="st7" d="M294.1,378.7c0,5.6,6.3,9,11.2,9c6.2,0,9.2-4.4,9.2-10c0-5.4-4.7-9.5-9.7-9.5
			C299.1,368.3,294.1,373.1,294.1,378.7z"/>
		<path class="st7" d="M229.9,378.7c0,5.6,6.3,9,11.2,9c6.2,0,9.2-4.4,9.2-10c0-5.4-4.7-9.5-9.7-9.5
			C234.8,368.3,229.9,373.1,229.9,378.7z"/>
		<path class="st6" d="M262,378.8c0,5.6,6.3,9,11.2,9c6.2,0,9.3-4.4,9.3-10c0-5.4-4.7-9.5-9.7-9.5C267,368.2,262,373.1,262,378.8z"
			/>
		<path class="st6" d="M326.3,378.8c0,5.6,6.3,9,11.2,9c6.2,0,9.3-4.4,9.3-10c0-5.4-4.7-9.5-9.7-9.5
			C331.2,368.2,326.3,373.1,326.3,378.8z"/>
	</g>
	<path class="st6" d="M326.3,171.6c0,5.6,6.3,9,11.2,9c6.2,0,9.2-4.4,9.2-10c0-5.4-4.7-9.5-9.7-9.5
		C331.2,161.1,326.3,166,326.3,171.6z"/>
	<path class="st7" d="M326.3,141.9c0,5.6,6.3,9,11.2,9c6.2,0,9.2-4.4,9.2-10c0-5.4-4.7-9.5-9.7-9.5
		C331.2,131.5,326.3,136.3,326.3,141.9z"/>
	<g>
		<g>
			<path class="st6" d="M124.7,85.7c0,0-4.2,1.9-9.2,6.2c-6-9.6,0-26.6,0-26.6s-9.6,12.3-5.4,32l0,0c-3.8,4.4-7.4,10.1-9.6,17.4l0,0
				c-1.1-2.9-2-5.9-2.7-9.1c-4.4-20.2-0.5-41.5,4.2-61.4c-7.4,17-12.6,36.1-12.4,54.7c0,1.9,0.2,3.8,0.4,5.7
				c-6.2-3.8-9.4-7.3-9.4-7.3s5.1,14.5,11.8,17.6c4.2,12.9,13.6,25,22.6,35.8c2.1-1,4.4-1.7,7-2.3c-6.5-8.2-13.1-16.5-17.5-25l0,0
				C108.5,103,124.7,85.7,124.7,85.7z"/>
			<path class="st6" d="M180.7,104.6c0.2-1.9,0.4-3.8,0.4-5.7c0.2-18.6-5-37.7-12.4-54.7c4.7,19.9,8.6,41.2,4.2,61.4
				c-0.7,3.2-1.6,6.2-2.7,9.1l0,0c-2.2-7.3-5.8-13-9.6-17.4l0,0c4.2-19.7-5.4-32-5.4-32s6,17.1,0,26.6c-5-4.3-9.2-6.2-9.2-6.2
				s16.2,17.3,20.2,37.7l0,0c-4.3,8.2-11.5,17.1-18,25.3c2.6,0.6,4.8,1.5,6.9,2.4c8.9-10.8,18.9-23.7,23.1-36.3
				c6.7-3.2,11.8-17.6,11.8-17.6S186.9,100.7,180.7,104.6z"/>
		</g>
		<path class="st7" d="M185,133.5c0,0-13.6,8.5-18.4,23C166.6,156.5,182.7,149.3,185,133.5z"/>
		<path class="st8" d="M171.7,136.8c-4.3,5.1-7.1,12.5-10,18.7c-0.1,0.3-0.3,0.6-0.4,0.9c-0.1,0.3-0.2,0.5-0.4,0.8l0,0.1
			c-1.9-1.8-4.1-3.4-6.8-4.7c-2-1-4.3-1.7-6.9-2.3c-3.7-0.8-8-1.3-13-1.3c-4.1,0-7.7,0.4-10.9,1c-2.6,0.5-4.9,1.2-7,2.1
			c-3.2,1.4-5.8,3.2-8,5.3c-0.1-0.3-0.3-0.6-0.4-0.9c-0.1-0.3-0.3-0.6-0.4-0.8c-2.8-6.3-5.9-14.1-10-18.9
			c-4.7-5.5-12.8-8.7-19.2-11.8c0.9,6.6,1.4,15,4.5,21c3.7,7.1,12.6,11.9,19.7,15.9c0.3,0.1,0.5,0.3,0.8,0.4
			c0.2,0.1,0.5,0.3,0.7,0.4l0.1-0.1c-4.2,6.5-6.2,15-7.9,24.3c3.7-5.6,7.9-8.4,12.5-8.4c0.7,0,1.5,0.1,2.2,0.2
			c7.1,1.4,11.6,8.6,13.6,12.8c5.3,11,7.9,25.3,7.6,40.9c0.9-0.3,1.9-0.4,2.8-0.4c0.5,0,1,0,1.4,0.1c-0.4-15.7,2.3-30.1,7.6-41.2
			c2.3-4.8,7.3-12.8,14.8-12.8c0.6,0,1.2,0,1.7,0.1c4.4,0.7,8.3,3.7,11.7,9.2c-1.7-9.5-3.3-18.1-7.2-24.8l0.1,0.1
			c0.2-0.1,0.5-0.3,0.7-0.4c0.3-0.2,0.6-0.3,0.8-0.5c7.1-4,16-8.7,19.7-15.8c3.1-6,3.6-14.4,4.5-21
			C184.4,128.1,176.4,131.3,171.7,136.8z M104.3,159.1l-2.2-1c-0.7-0.3-17.1-7.8-19.5-24.4l-0.5-3.8l3.3,2.1c0.6,0.4,14.2,9,19.2,24
			l0.7,2l0.3,1l0.3,0.8l-0.7-0.3L104.3,159.1z M121.1,163c-0.3-1.8-1.2-3.3-2.6-4.5c-0.5-0.5,1.1-1.1,1.5-0.7
			c1.4,1.3,2.4,2.9,2.7,4.8C122.9,163.2,121.2,163.6,121.1,163z M126.5,171.8c-0.4-1.5-0.7-3-1-4.5c-0.1-0.8,1.5-1.3,1.7-0.4
			c0.3,1.5,0.6,3,1,4.5C128.4,172.1,126.7,172.6,126.5,171.8z M128,161.6c-0.3-1.5-0.6-2.9-1.1-4.4c-0.2-0.8,1.4-1.3,1.7-0.4
			c0.4,1.4,0.8,2.9,1.1,4.4C129.9,161.9,128.2,162.4,128,161.6z M130.8,179.8c-0.1-1.7-0.7-3.2-1.7-4.6c-0.4-0.5,1.2-1.1,1.5-0.7
			c1,1.4,1.6,3,1.8,4.8C132.5,180,130.8,180.3,130.8,179.8z M131.9,187.6c0-1.4-0.2-2.8-0.6-4.2c-0.3-0.8,1.4-1.2,1.7-0.4
			c0.5,1.5,0.7,3,0.6,4.5C133.6,188.3,131.9,188.5,131.9,187.6z M133.6,170.9c0,0.6-1.7,0.9-1.7,0.2c0.1-1.5,0-2.9-0.3-4.4
			c-0.1-0.6,1.6-1.1,1.7-0.4C133.6,167.8,133.7,169.3,133.6,170.9z M140,166.5c-0.9,1.2-1.4,2.6-1.5,4.1c-0.1,0.7-1.7,1-1.7,0.1
			c0.1-1.7,0.7-3.3,1.8-4.7C139.1,165.4,140.7,165.7,140,166.5z M136,155.6c0.3-0.7,1.9-0.7,1.6,0.2c-0.6,1.7-0.8,3.4-0.7,5.2
			c0.1,0.8-1.6,1-1.7,0.1C135,159.3,135.3,157.4,136,155.6z M134.4,179.8c-0.1-1.8-0.4-3.8,0-5.6c0.1-0.7,1.8-0.9,1.7-0.2
			c-0.4,1.7-0.1,3.6,0,5.3C136.1,180.1,134.5,180.5,134.4,179.8z M134.7,193.9c0-1.3-0.1-2.6-0.1-3.9c0-0.8,1.7-1,1.7-0.1
			c0,1.3,0.1,2.6,0.1,3.9C136.5,194.5,134.8,194.8,134.7,193.9z M138.3,187c0,0.7-1.6,1-1.7,0.4c0-1.3,0-2.6,0.3-3.9
			c0.1-0.6,1.8-0.9,1.7-0.2C138.3,184.6,138.2,185.8,138.3,187z M141.1,174.2c-0.8,2.2-1.2,4.4-1.3,6.7c0,0.8-1.7,1-1.7,0.1
			c0.1-2.4,0.5-4.8,1.4-7C139.7,173.3,141.4,173.3,141.1,174.2z M145.2,166.6c-0.5,1.3-0.8,2.6-0.9,3.9c0,0.7-1.7,1-1.7,0.1
			c0.1-1.5,0.4-2.9,1-4.2C143.9,165.8,145.6,165.7,145.2,166.6z M145.9,156.4c-0.9,1.3-1.4,2.8-1.7,4.3c-0.1,0.4-1.7,0.7-1.6,0.3
			c0.3-1.5,0.8-3,1.7-4.3c0.2-0.3,0.6-0.4,1-0.5C145.3,156.2,146.1,156.1,145.9,156.4z M151.1,159.2c-0.9,1.3-1.6,2.7-2.1,4.2
			c-0.2,0.7-1.9,0.7-1.6-0.2c0.5-1.6,1.3-3.1,2.3-4.4C150.1,158.1,151.7,158.4,151.1,159.2z M167.3,158.1l-2.4,1.1l-0.9,0.4
			l-0.4,0.2l0.2-0.5l0.4-1.1l0.7-2.2c4.9-14.9,18.6-23.6,19.2-24l3.3-2.1l-0.5,3.8C184.4,150.4,168,157.8,167.3,158.1z"/>
		<path class="st7" d="M84.5,133.5c2.3,15.8,18.4,23,18.4,23C98.1,142,84.5,133.5,84.5,133.5z"/>
		<g>
			<path class="st9" d="M110.6,180.4c-0.7-0.1-1.3-0.2-1.9-0.2c-6.3,0-10.7,6.4-13.5,12c0,0,0,0,0,0.1c-0.2,0.9-0.4,1.9-0.6,2.8
				c0,0,0,0.1,0,0.1c-0.1,0.4-0.2,0.9-0.3,1.3c0,0.2-0.1,0.3-0.1,0.5c-0.1,0.4-0.1,0.7-0.2,1.1c0,0.2-0.1,0.4-0.1,0.5
				c-0.1,0.3-0.1,0.7-0.2,1c0,0.2-0.1,0.4-0.1,0.6c-0.1,0.3-0.1,0.7-0.1,1c0,0.2,0,0.3-0.1,0.5c0,0.4-0.1,0.8-0.1,1.2
				c0,0.1,0,0.2,0,0.3c0,0.5-0.1,1-0.1,1.5c0,0.1,0,0.2,0,0.3c0,0.4,0,0.8,0,1.2c0,0.2,0,0.3,0,0.5c0,0.3,0,0.7,0,1
				c0,0.2,0,0.4,0,0.6c0,0.3,0.1,0.6,0.1,0.9c0,0.2,0,0.4,0.1,0.6c0,0.3,0.1,0.6,0.2,0.9c0,0.2,0.1,0.4,0.1,0.5
				c0.1,0.3,0.2,0.6,0.2,1c0,0.2,0.1,0.3,0.1,0.5c0.1,0.5,0.3,0.9,0.5,1.4c0.2,0.4,0.3,0.8,0.5,1.2c0.1,0.1,0.1,0.3,0.2,0.4
				c0.1,0.3,0.3,0.5,0.4,0.8c0.1,0.2,0.2,0.3,0.3,0.5c0.1,0.2,0.3,0.5,0.4,0.7c0.1,0.2,0.2,0.3,0.3,0.5c0.1,0.2,0.3,0.4,0.4,0.7
				c0.1,0.2,0.2,0.3,0.3,0.5c0.2,0.2,0.3,0.4,0.5,0.7c0.1,0.2,0.2,0.3,0.4,0.5c0.2,0.2,0.3,0.4,0.5,0.6c0.1,0.2,0.3,0.3,0.4,0.5
				c0.2,0.2,0.4,0.4,0.6,0.6c0.1,0.1,0.3,0.3,0.4,0.4c0.2,0.2,0.4,0.5,0.6,0.7c0.1,0.1,0.2,0.3,0.4,0.4c0.3,0.3,0.6,0.5,0.8,0.8
				c0.1,0.1,0.2,0.2,0.2,0.2c0.4,0.3,0.7,0.7,1.1,1c0.1,0.1,0.3,0.2,0.4,0.4c0.2,0.2,0.5,0.4,0.7,0.6c0.2,0.1,0.3,0.3,0.5,0.4
				c0.2,0.2,0.4,0.4,0.7,0.5c0.2,0.1,0.4,0.3,0.6,0.4c0.2,0.2,0.4,0.3,0.7,0.5c0.2,0.1,0.4,0.3,0.6,0.4c0.2,0.2,0.4,0.3,0.7,0.5
				c0.2,0.1,0.4,0.3,0.6,0.4c0.2,0.1,0.4,0.3,0.7,0.4c0.2,0.1,0.4,0.3,0.7,0.4c0.2,0.1,0.4,0.3,0.6,0.4c0.2,0.1,0.5,0.3,0.7,0.4
				c0.2,0.1,0.4,0.2,0.6,0.4c0.2,0.1,0.5,0.3,0.7,0.4c0.2,0.1,0.4,0.2,0.6,0.3c1,0.6,2.1,1.1,3.1,1.6c0.1,0.1,0.3,0.1,0.4,0.2
				c0.3,0.1,0.6,0.3,0.9,0.4c0.2,0.1,0.3,0.2,0.5,0.2c0.3,0.1,0.6,0.2,0.9,0.4c0.2,0.1,0.3,0.1,0.5,0.2c0.3,0.1,0.6,0.2,0.9,0.3
				c0.2,0.1,0.3,0.1,0.5,0.2c0.3,0.1,0.6,0.2,0.9,0.3c0.2,0.1,0.3,0.1,0.5,0.2c0.3,0.1,0.6,0.2,0.9,0.3c0.2,0.1,0.3,0.1,0.5,0.1
				c0.3,0.1,0.6,0.2,0.9,0.3c0.1,0,0.3,0.1,0.4,0.1c0.3,0.1,0.6,0.2,1,0.3c0.1,0,0.2,0,0.3,0.1c0.1,0,0.2,0,0.2,0.1
				c0.2-1.2,0.7-2.3,1.6-3.2c0.6-0.6,1.3-1.1,2.1-1.5c0.4-13.8-1.5-28.6-7.4-40.9C120.5,187.3,116.4,181.6,110.6,180.4z
				 M117.7,199.4c-4.3,4.2-10.6,3.8-14.6-0.4c-0.7-0.7,2-1.8,2.7-1.1c2.8,2.9,6.5,4.2,9.6,1.1C116,198.4,118.8,198.3,117.7,199.4z"
				/>
			<path class="st9" d="M175.1,206.2c0-0.4,0-0.9,0-1.3c0-0.2,0-0.3,0-0.5c0-0.3,0-0.7-0.1-1c0-0.2,0-0.4,0-0.5c0-0.3-0.1-0.7-0.1-1
				c0-0.2,0-0.3-0.1-0.5c-0.1-0.4-0.1-0.8-0.2-1.2c0-0.1,0-0.2,0-0.3c-0.1-0.5-0.2-1-0.2-1.5c0-0.1,0-0.2-0.1-0.3
				c-0.1-0.4-0.1-0.8-0.2-1.2c0-0.2-0.1-0.3-0.1-0.5c-0.1-0.4-0.1-0.7-0.2-1.1c0-0.1-0.1-0.3-0.1-0.4c-0.1-0.5-0.2-1-0.3-1.5
				c0-0.1,0-0.1,0-0.2c-2.6-5.6-6.7-12.1-13.1-13.1c-0.5-0.1-1-0.1-1.5-0.1c-6.2,0-10.8,6.7-13.2,11.7c-5.9,12.3-7.8,27.1-7.4,40.9
				c2.1,0.9,3.4,2.6,3.5,4.9c0,0,0,0,0,0c0,0.1,0,0.2,0,0.3c1.4-0.3,2.9-0.8,4.4-1.3c0,0,0.1,0,0.1,0c0.4-0.1,0.8-0.3,1.2-0.4
				c0.1,0,0.1-0.1,0.2-0.1c0.4-0.1,0.7-0.3,1.1-0.4c0.1,0,0.2-0.1,0.3-0.1c0.4-0.2,0.7-0.3,1.1-0.5c0.1,0,0.2-0.1,0.3-0.1
				c0.4-0.2,0.7-0.3,1.1-0.5c0.1,0,0.1-0.1,0.2-0.1c1.6-0.8,3.3-1.6,4.9-2.6c0.1,0,0.2-0.1,0.2-0.1c0.3-0.2,0.6-0.4,0.9-0.5
				c0.2-0.1,0.3-0.2,0.5-0.3c0.3-0.2,0.5-0.3,0.8-0.5c0.2-0.1,0.4-0.2,0.5-0.3c0.2-0.2,0.5-0.3,0.7-0.5c0.2-0.1,0.4-0.3,0.6-0.4
				c0.2-0.2,0.5-0.3,0.7-0.5c0.2-0.1,0.4-0.3,0.6-0.4c0.2-0.2,0.4-0.3,0.6-0.5c0.2-0.2,0.4-0.3,0.6-0.5c0.2-0.2,0.4-0.3,0.6-0.5
				c0.2-0.2,0.4-0.3,0.6-0.5c0.2-0.2,0.4-0.3,0.5-0.5c0.3-0.2,0.5-0.5,0.7-0.7c0.1-0.1,0.2-0.2,0.4-0.3c0.4-0.3,0.7-0.7,1-1
				c0.1-0.1,0.2-0.2,0.4-0.4c0.2-0.2,0.4-0.5,0.7-0.7c0.1-0.1,0.3-0.3,0.4-0.4c0.2-0.2,0.4-0.4,0.6-0.6c0.1-0.2,0.3-0.3,0.4-0.5
				c0.2-0.2,0.3-0.4,0.5-0.6c0.1-0.2,0.2-0.3,0.4-0.5c0.2-0.2,0.3-0.4,0.5-0.7c0.1-0.2,0.2-0.3,0.3-0.5c0.2-0.2,0.3-0.4,0.4-0.7
				c0.1-0.2,0.2-0.3,0.3-0.5c0.1-0.2,0.3-0.5,0.4-0.7c0.1-0.2,0.2-0.3,0.3-0.5c0.1-0.3,0.3-0.5,0.4-0.8c0.1-0.1,0.1-0.3,0.2-0.4
				c0.2-0.4,0.4-0.8,0.5-1.2c0.2-0.4,0.3-0.9,0.5-1.4c0-0.1,0.1-0.3,0.1-0.4c0.1-0.3,0.2-0.6,0.2-1c0-0.2,0.1-0.3,0.1-0.5
				c0.1-0.3,0.1-0.6,0.2-0.9c0-0.2,0-0.3,0.1-0.5c0-0.4,0.1-0.7,0.1-1.1c0-0.1,0-0.3,0-0.4c0-0.5,0-1,0-1.5
				C175.1,206.4,175.1,206.3,175.1,206.2z M164.8,198.9c-4.1,4.3-10.2,5.4-14.7,0.9c-1.1-1,1.7-2.3,2.6-1.3
				c-0.3-0.3,0.5,0.4,0.6,0.5c0.5,0.4,1.1,0.8,1.8,1c2.8,1.2,5.2,0,7.2-2.1C163.3,197,166,197.6,164.8,198.9z"/>
		</g>
		<g>
			<path d="M162.3,198c-2,2.1-4.4,3.3-7.2,2.1c-0.6-0.3-1.2-0.6-1.8-1c-0.1-0.1-0.9-0.8-0.6-0.5c-1-1-3.7,0.3-2.6,1.3
				c4.5,4.4,10.6,3.4,14.7-0.9C166,197.6,163.3,197,162.3,198z"/>
			<path d="M115.4,199c-3.1,3.1-6.9,1.8-9.6-1.1c-0.7-0.7-3.4,0.4-2.7,1.1c4,4.2,10.4,4.6,14.6,0.4C118.8,198.3,116,198.4,115.4,199
				z"/>
			<path d="M140,237.5c-0.1-1.3-0.7-2.3-1.7-2.9c-0.3-0.2-0.6-0.3-0.9-0.5c-0.3-0.1-0.6-0.2-0.9-0.3c-0.5-0.1-1-0.2-1.5-0.2
				c-1,0-2,0.2-2.9,0.5c-0.3,0.1-0.6,0.3-0.9,0.4c-0.3,0.2-0.6,0.4-0.9,0.6c-1,0.7-1.6,1.7-1.8,3c0,0,0,0,0,0c0,0.2,0,0.5,0,0.7
				c0,0.1,0,0.1,0,0.2c0,0,0,0,0,0c0,0.4,0.1,0.7,0.3,1c0,0,0,0,0,0c0.7,1.4,2.3,1.8,4,1.8c0.2,0,0.4,0,0.6,0c1.8,0,4-0.5,5.4-1.7
				c0,0,0,0,0,0c0.3-0.3,0.6-0.6,0.8-1c0,0,0,0,0,0c0.2-0.3,0.3-0.6,0.3-1c0,0,0,0,0,0c0-0.1,0.1-0.3,0.1-0.4
				C140,237.7,140,237.6,140,237.5C140,237.6,140,237.6,140,237.5z"/>
		</g>
	</g>
	<g>
		<g>
			<path class="st7" d="M257.7,113.9c-3.6-5.7-7.3-11.4-11.6-16.7c-3.1-3.8-8.1-10.2-13.4-11c-5.2-0.8-8.1,6.1-10.6,9.6
				c-4.3,6-8.5,12.1-12.8,18.1c-1.9,2.6,2.5,5.1,4.3,2.5c3-4.3,6-8.5,9-12.8c2-2.8,6.9-13,10.9-11.6c4.2,1.4,8.5,8,11,11.3
				c3.2,4.2,6,8.6,8.8,13.1C255.1,119.1,259.5,116.6,257.7,113.9z"/>
			<path class="st7" d="M239,103.1c-2.4-3.2-5.3-4.5-8.7-1.9c-2.6,2-10.4,11.8-6,15c0.3,0.3,0.6,0.5,1.1,0.6
				c3.1,0.7,6.2,0.6,9.4,0.3c2.9-0.2,6.1,0,9-0.5c0.8-0.1,1.6-1,1.7-1.7c0.5-2.3-0.6-3.3-1.9-5.1C241.9,107.6,240.6,105.3,239,103.1
				z"/>
		</g>
		<g>
			<path class="st7" d="M348.4,113.9c-3.6-5.7-7.3-11.4-11.6-16.7c-3.1-3.8-8.1-10.2-13.4-11c-5.2-0.8-8.1,6.1-10.6,9.6
				c-4.3,6-8.5,12.1-12.8,18.1c-1.9,2.6,2.5,5.1,4.3,2.5c3-4.3,6-8.5,9-12.8c2-2.8,6.9-13,10.9-11.6c4.2,1.4,8.5,8,11,11.3
				c3.2,4.2,6,8.6,8.8,13.1C345.8,119.1,350.1,116.6,348.4,113.9z"/>
			<path class="st7" d="M329.6,103.1c-2.4-3.2-5.3-4.5-8.7-1.9c-2.6,2-10.4,11.8-6,15c0.3,0.3,0.6,0.5,1.1,0.6
				c3.1,0.7,6.2,0.6,9.4,0.3c2.9-0.2,6.1,0,9-0.5c0.8-0.1,1.6-1,1.7-1.7c0.5-2.3-0.6-3.3-1.9-5.1
				C332.6,107.6,331.2,105.3,329.6,103.1z"/>
		</g>
		<g>
			<path class="st7" d="M255.7,89.9c3.6,5.7,7.3,11.4,11.6,16.7c3.1,3.8,8.1,10.2,13.4,11c5.2,0.8,8.1-6.1,10.6-9.6
				c4.3-6,8.5-12.1,12.8-18.1c1.9-2.6-2.5-5.1-4.3-2.5c-3,4.3-6,8.5-9,12.8c-2,2.8-6.9,13-10.9,11.6c-4.2-1.4-8.5-8-11-11.3
				c-3.2-4.2-6-8.6-8.8-13.1C258.3,84.6,254,87.1,255.7,89.9z"/>
			<path class="st7" d="M274.5,100.7c2.4,3.2,5.3,4.5,8.7,1.9c2.6-2,10.4-11.8,6-15c-0.3-0.3-0.6-0.5-1.1-0.6
				c-3.1-0.7-6.2-0.6-9.4-0.3c-2.9,0.2-6.1,0-9,0.5c-0.8,0.1-1.6,1-1.7,1.7c-0.5,2.3,0.6,3.3,1.9,5.1
				C271.5,96.2,272.9,98.5,274.5,100.7z"/>
		</g>
	</g>
</g>
</svg>
